<?xml version="1.0" standalone="no"?>
<!DOCTYPE svg PUBLIC "-//W3C//DTD SVG 20010904//EN"
 "http://www.w3.org/TR/2001/REC-SVG-20010904/DTD/svg10.dtd">
<svg version="1.0" xmlns="http://www.w3.org/2000/svg"
 width="1024.000000pt" height="1024.000000pt" viewBox="0 0 1024.000000 1024.000000"
 preserveAspectRatio="xMidYMid meet">

<g transform="translate(0.000000,1024.000000) scale(0.100000,-0.100000)"
fill="#000000" stroke="none">
<path d="M0 5120 l0 -5120 5120 0 5120 0 0 5120 0 5120 -5120 0 -5120 0 0
-5120z m5225 2141 c94 -1 135 -4 125 -11 -8 -5 -10 -10 -4 -10 5 0 15 5 22 12
9 9 12 8 12 -4 0 -21 69 -35 81 -17 6 10 21 9 73 -5 36 -10 83 -19 105 -19 41
-2 52 -10 29 -21 -7 -3 -1 -3 15 0 15 4 39 3 54 -1 21 -5 24 -8 12 -16 -11 -7
-10 -9 6 -7 36 2 56 -2 51 -11 -4 -5 4 -7 16 -3 14 3 19 2 14 -6 -5 -8 1 -12
17 -12 23 0 103 -29 83 -30 -16 0 0 -10 33 -20 19 -5 29 -5 26 1 -3 5 1 6 9 3
9 -3 13 -10 10 -15 -3 -5 5 -9 18 -9 26 -1 72 -30 47 -30 -18 -1 51 -32 71
-33 8 0 21 -8 28 -19 7 -10 19 -18 25 -18 7 0 6 4 -3 10 -13 8 -13 10 1 10 19
0 52 -34 42 -44 -4 -4 0 -4 10 0 11 4 17 1 17 -8 0 -9 9 -14 23 -14 15 1 22
-4 21 -16 -1 -11 4 -14 14 -11 9 4 13 2 9 -4 -4 -6 0 -14 9 -17 8 -3 12 -2 9
4 -3 6 1 7 10 4 9 -4 14 -13 11 -21 -3 -8 0 -13 7 -11 7 2 12 0 12 -4 0 -13
39 -36 52 -31 12 5 18 -8 14 -30 -1 -5 3 -6 8 -3 10 6 61 -42 61 -57 0 -4 10
-2 23 4 12 6 19 8 14 4 -4 -5 -1 -15 7 -24 8 -9 15 -20 15 -26 1 -5 7 -10 14
-10 6 -1 11 -6 9 -13 -1 -7 3 -11 10 -10 7 2 12 -4 13 -12 0 -8 6 -15 14 -15
8 0 17 -9 22 -20 4 -11 8 -16 8 -11 1 5 8 3 16 -4 9 -7 14 -19 11 -27 -3 -8
-2 -12 3 -9 13 9 51 -33 44 -50 -6 -16 33 -64 53 -64 7 0 15 6 17 13 3 6 4 -3
2 -20 -2 -18 0 -32 3 -32 22 3 31 -4 37 -31 4 -16 10 -30 14 -30 14 0 71 -101
65 -112 -4 -6 -3 -9 2 -6 5 3 19 -10 31 -29 13 -19 18 -31 12 -27 -7 4 -10 1
-7 -7 3 -8 10 -13 15 -12 13 3 26 -24 53 -106 12 -35 30 -75 41 -89 10 -14 19
-33 19 -42 0 -10 7 -31 15 -46 8 -16 15 -45 15 -64 0 -26 3 -31 10 -20 7 11
10 5 10 -23 0 -28 6 -44 23 -58 16 -14 17 -17 4 -13 -15 6 -16 3 -6 -22 6 -16
11 -47 10 -69 0 -25 2 -35 8 -27 10 16 24 -98 15 -125 -5 -15 -4 -16 5 -3 9
12 11 4 8 -33 -4 -51 9 -52 16 -2 2 17 3 8 1 -18 -2 -26 1 -60 7 -74 5 -14 7
-28 4 -31 -2 -3 -8 5 -13 18 -6 16 -8 5 -8 -38 1 -39 5 -57 11 -52 10 8 -5
-160 -17 -190 -5 -12 -13 -114 -22 -277 0 -11 -4 -19 -8 -17 -12 7 -21 -43
-14 -73 5 -22 4 -25 -4 -13 -9 12 -11 9 -7 -12 2 -16 0 -28 -5 -28 -6 0 -7
-12 -4 -27 5 -22 4 -25 -4 -13 -9 11 -10 6 -5 -22 6 -36 -9 -83 -23 -74 -4 2
-8 -6 -8 -17 -1 -12 -9 -42 -18 -66 -10 -25 -14 -56 -11 -69 6 -23 5 -24 -12
-7 -16 17 -18 16 -26 -11 -14 -49 -30 -74 -40 -67 -7 4 -8 -1 -4 -12 4 -9 2
-24 -4 -31 -6 -8 -9 -20 -6 -29 7 -18 -9 -30 -17 -13 -3 7 -2 0 1 -16 4 -18 2
-27 -4 -23 -13 8 -36 -41 -26 -56 4 -7 -1 -6 -10 2 -15 12 -17 12 -12 -2 4 -8
2 -18 -4 -21 -6 -4 -7 -14 -4 -24 6 -15 5 -16 -12 -2 -17 14 -18 13 -13 -8 5
-17 2 -22 -9 -20 -9 2 -18 -4 -20 -12 -4 -13 -3 -13 6 0 6 8 11 11 11 6 0 -6
-9 -20 -21 -32 -11 -12 -28 -37 -38 -55 -27 -50 -104 -138 -118 -134 -7 3 -10
-2 -6 -12 5 -12 2 -15 -10 -10 -12 4 -14 2 -10 -10 5 -12 2 -15 -10 -10 -12 4
-17 1 -17 -9 0 -23 -64 -84 -87 -84 -11 0 -28 -9 -39 -21 -15 -17 -16 -23 -6
-40 12 -19 11 -19 -9 -8 -19 10 -21 9 -16 -5 4 -9 2 -16 -2 -16 -5 0 -12 6
-14 13 -3 6 -6 3 -6 -8 -1 -28 -60 -79 -76 -65 -8 7 -17 5 -29 -8 -9 -10 -14
-21 -11 -24 3 -3 -4 -13 -15 -23 -11 -10 -20 -13 -20 -8 0 6 7 14 16 17 9 4
14 9 11 12 -8 8 -69 -35 -63 -44 2 -4 -14 -18 -35 -32 -21 -13 -39 -28 -39
-32 0 -4 -4 -8 -10 -8 -18 0 -10 17 13 28 12 6 16 11 9 11 -8 1 -26 -12 -41
-28 -15 -16 -43 -34 -62 -39 -19 -5 -33 -14 -31 -21 1 -8 -7 -9 -25 -5 -19 4
-24 3 -14 -4 8 -6 9 -12 3 -16 -6 -3 -13 -2 -16 3 -4 5 -16 4 -30 -2 -16 -8
-21 -14 -13 -19 7 -5 -1 -8 -18 -8 -16 0 -39 -7 -49 -15 -11 -8 -28 -15 -39
-15 -10 0 -15 -4 -12 -10 6 -10 -13 -15 -50 -12 -15 2 -16 0 -7 -7 10 -6 1
-11 -27 -19 -30 -7 -41 -7 -41 2 0 6 -5 4 -10 -4 -5 -8 -15 -15 -22 -16 -40
-2 -108 -17 -108 -23 0 -4 -17 -8 -37 -8 -20 -1 -42 -7 -47 -15 -6 -7 -15 -13
-21 -13 -107 -6 -236 -19 -223 -24 9 -3 -71 -6 -178 -7 -107 0 -189 3 -182 7
13 9 0 10 -97 14 -61 2 -135 15 -135 24 0 5 -17 11 -39 15 -21 3 -51 13 -67
21 -17 9 -40 13 -57 9 -35 -7 -122 16 -104 29 7 5 3 6 -11 2 -13 -4 -29 -2
-36 5 -8 6 -18 10 -22 9 -12 -3 -48 12 -54 23 -4 4 -22 9 -42 10 -35 3 -44 15
-23 31 6 4 -3 5 -19 1 -19 -5 -27 -3 -23 3 4 6 -1 10 -11 9 -9 0 -16 5 -14 12
2 10 -4 11 -19 7 -15 -5 -19 -4 -15 4 4 7 -1 11 -12 11 -27 0 -101 41 -99 54
1 6 -6 10 -15 10 -10 -1 -15 2 -12 7 3 5 -2 9 -11 9 -8 0 -18 7 -21 15 -3 8
-21 20 -40 27 -19 6 -34 18 -34 25 0 7 -5 13 -11 13 -5 0 -7 -4 -4 -10 3 -5 1
-10 -4 -10 -6 0 -11 7 -11 15 0 9 -6 12 -17 8 -10 -4 -14 -2 -10 4 4 5 -5 21
-18 33 -14 13 -25 18 -25 12 0 -7 5 -12 12 -12 6 0 8 -3 4 -7 -8 -8 -82 68
-78 81 2 5 -5 6 -14 2 -12 -5 -15 -2 -10 10 5 12 2 15 -10 10 -12 -5 -15 -2
-10 11 4 10 4 14 0 11 -3 -4 -13 0 -21 8 -9 8 -23 13 -32 10 -11 -4 -10 -1 4
10 14 11 15 15 5 14 -31 -4 -41 0 -38 18 2 13 -3 16 -21 14 -19 -2 -22 0 -12
12 10 11 8 16 -8 21 -12 4 -18 12 -14 21 4 10 0 12 -13 7 -14 -5 -16 -3 -11
11 4 10 3 15 -3 11 -5 -3 -15 5 -22 19 -9 20 -14 23 -25 15 -10 -9 -13 -7 -14
7 -3 42 -5 47 -24 58 -35 20 -46 34 -32 40 8 3 6 8 -6 16 -11 7 -25 26 -33 44
-8 17 -18 38 -23 46 -4 8 -14 29 -22 45 -10 20 -22 30 -37 29 -18 0 -20 2 -9
15 10 12 9 14 -4 9 -13 -5 -16 -2 -12 13 7 25 -24 72 -40 62 -7 -4 -7 0 2 10
12 15 11 17 -4 17 -12 0 -16 6 -13 18 3 12 -2 24 -14 31 -11 7 -17 19 -14 27
3 8 2 22 -1 31 -6 15 -7 15 -15 -3 -6 -14 -7 -11 -5 13 2 19 -1 30 -7 26 -5
-4 -7 1 -3 11 4 10 3 15 -3 11 -9 -5 -14 16 -13 52 1 7 -3 11 -7 8 -5 -3 -11
13 -15 36 -4 24 -12 39 -18 36 -8 -3 -13 9 -15 30 -1 19 -9 47 -17 64 -9 16
-11 29 -5 29 13 0 13 25 1 48 -6 9 -12 30 -16 45 -3 15 -9 26 -13 23 -4 -2 -6
24 -4 57 2 57 1 60 -10 34 -12 -27 -13 -25 -14 35 0 35 -4 106 -8 158 -6 89
-9 259 -5 305 1 11 5 25 10 30 4 6 9 45 11 88 2 42 7 77 11 77 17 0 36 70 33
123 -2 31 0 54 4 52 4 -3 8 1 7 8 -1 34 4 48 15 41 8 -5 9 -2 5 11 -4 9 -2 24
4 32 7 8 12 32 11 54 -1 24 2 38 8 34 5 -3 12 7 16 22 17 72 38 124 48 120 8
-3 11 5 8 25 -3 20 -1 28 6 25 5 -4 14 11 20 36 6 23 20 52 32 64 11 12 20 27
20 33 0 5 6 10 14 10 8 0 17 7 20 16 3 8 2 13 -3 9 -5 -3 -4 8 2 25 6 16 14
25 17 20 9 -15 34 36 27 54 -4 9 -2 16 3 16 6 0 10 -4 10 -10 0 -5 5 -10 10
-10 6 0 9 3 9 8 -4 23 2 42 12 36 8 -4 9 0 4 15 -6 19 8 31 18 14 2 -5 3 -3 1
4 -1 6 6 19 16 28 10 9 21 28 24 41 4 14 11 22 17 19 5 -4 18 4 28 17 23 27
19 37 -6 17 -16 -13 -17 -12 -4 4 7 9 20 17 28 17 10 0 13 6 9 16 -3 8 -2 12
4 9 6 -3 10 -1 10 5 0 7 7 10 15 6 12 -4 13 -2 6 13 -12 22 4 42 27 33 11 -4
14 -1 10 10 -4 8 -1 15 7 15 7 0 11 -7 8 -16 -4 -14 -3 -14 5 -1 8 10 8 18 0
27 -8 10 -7 12 6 7 11 -4 16 -1 16 11 0 9 9 19 20 22 11 3 20 10 20 15 0 5 16
16 36 24 25 10 34 20 30 30 -5 12 -1 14 16 8 16 -5 20 -3 15 9 -4 10 -1 14 7
11 7 -3 21 4 31 16 10 11 24 20 32 20 7 0 13 4 13 9 0 5 -10 7 -22 5 -13 -2
-16 -1 -8 2 8 4 21 12 29 18 12 9 13 8 7 -3 -14 -22 35 -3 67 27 20 19 24 28
15 35 -9 6 -7 7 7 4 25 -5 48 16 33 31 -6 6 0 8 18 4 20 -4 25 -2 19 8 -5 9
-2 10 12 6 14 -4 29 2 49 22 17 16 37 26 49 24 17 -3 18 -1 5 8 -12 10 -11 11
8 7 12 -3 20 -2 17 3 -5 8 24 25 38 21 14 -3 48 20 42 29 -3 4 4 6 15 3 11 -3
30 4 46 16 15 12 38 21 53 21 20 0 23 2 11 10 -12 8 -12 10 5 10 11 0 45 10
75 22 30 12 73 21 94 21 22 -1 34 2 27 6 -6 4 26 14 73 21 47 7 83 17 80 22
-3 5 14 6 38 2 34 -4 40 -3 28 6 -12 9 -5 11 33 7 26 -3 47 -1 47 4 0 9 76 15
165 12 33 -1 123 -2 200 -2z m-1008 -187 c-3 -3 -12 -4 -19 -1 -8 3 -5 6 6 6
11 1 17 -2 13 -5z m-497 -324 c0 -5 -5 -10 -11 -10 -5 0 -7 5 -4 10 3 6 8 10
11 10 2 0 4 -4 4 -10z m-633 -952 c-3 -8 -6 -5 -6 6 -1 11 2 17 5 13 3 -3 4
-12 1 -19z m4180 -460 c-3 -8 -6 -5 -6 6 -1 11 2 17 5 13 3 -3 4 -12 1 -19z
m-37 -525 c-11 -17 -11 -17 -6 0 3 10 7 26 7 35 1 15 2 15 6 0 2 -10 -1 -25
-7 -35z m-3780 -993 c0 -5 -5 -10 -11 -10 -5 0 -7 5 -4 10 3 6 8 10 11 10 2 0
4 -4 4 -10z m495 -458 c-3 -3 -11 0 -18 7 -9 10 -8 11 6 5 10 -3 15 -9 12 -12z
m1243 -359 c-10 -2 -28 -2 -40 0 -13 2 -5 4 17 4 22 1 32 -1 23 -4z"/>
<path d="M5708 7173 c7 -3 16 -2 19 1 4 3 -2 6 -13 5 -11 0 -14 -3 -6 -6z"/>
<path d="M4865 7139 c-347 -55 -606 -154 -875 -335 -125 -83 -163 -116 -296
-249 -491 -491 -689 -1183 -536 -1870 106 -471 419 -932 822 -1206 134 -92
325 -190 470 -242 287 -102 661 -136 975 -87 139 21 330 71 415 107 319 138
487 248 696 457 315 315 490 650 570 1091 24 134 30 442 11 586 -47 355 -176
673 -388 960 -64 86 -255 284 -342 355 -243 197 -598 359 -907 414 -98 18
-171 23 -340 26 -118 1 -242 -2 -275 -7z m380 -219 l0 -35 -57 -3 c-50 -3 -58
-6 -58 -22 0 -17 7 -20 55 -20 l55 0 0 -40 0 -40 -56 0 c-52 0 -55 -1 -52 -22
3 -20 10 -23 61 -26 54 -3 57 -4 58 -30 l1 -27 8 25 c4 14 13 68 20 120 20
156 17 150 59 150 89 0 151 -40 151 -97 0 -19 -4 -42 -10 -52 -6 -13 -5 -24 5
-37 8 -11 15 -32 15 -47 0 -16 4 -26 9 -23 5 3 20 -3 34 -14 33 -26 67 -26 67
-1 0 11 -9 23 -20 26 -11 4 -20 15 -20 26 0 30 20 61 34 56 7 -3 19 -1 27 4
12 8 11 12 -6 25 -11 8 -28 13 -37 10 -24 -6 -31 8 -23 44 8 36 34 45 80 30
67 -22 96 -96 58 -150 -10 -14 -16 -39 -14 -60 1 -24 -5 -46 -21 -70 -23 -33
-27 -35 -80 -35 -72 0 -102 23 -92 69 l7 31 -29 -34 -28 -34 -83 6 c-46 3 -88
9 -94 13 -6 3 -56 7 -112 7 l-102 2 -3 144 c-2 79 -1 150 2 158 4 11 25 13 98
11 l93 -3 0 -35z m-245 18 c0 -7 -12 -78 -26 -158 -25 -137 -36 -170 -54 -170
-5 0 -32 35 -61 78 -28 42 -54 79 -56 82 -9 10 -21 -25 -32 -92 -12 -74 -25
-108 -41 -108 -5 0 -38 44 -73 98 -132 202 -132 202 -77 202 24 0 37 -11 76
-67 27 -36 49 -62 51 -56 2 6 9 41 16 79 11 55 18 71 37 81 31 15 47 4 94 -70
44 -68 48 -66 61 29 4 27 12 57 17 67 10 20 68 24 68 5z m965 -160 c14 -6 25
-15 25 -20 0 -24 -130 -278 -142 -278 -8 0 -23 6 -33 14 -18 13 -15 20 46 155
35 77 67 141 71 141 4 0 19 -5 33 -12z m-1597 -43 c39 -33 55 -74 50 -135 -2
-42 0 -49 12 -44 40 17 54 16 66 -1 8 -11 14 -26 14 -35 0 -21 -169 -105 -183
-91 -6 6 -3 43 7 106 15 89 15 99 1 121 -13 20 -19 23 -36 13 -11 -6 -25 -24
-31 -40 -13 -38 -21 -37 -41 6 -22 45 -21 57 1 83 40 46 97 53 140 17z m1724
-22 c9 -10 18 -36 21 -58 14 -100 30 -185 36 -185 3 0 26 32 51 70 25 38 48
70 51 70 4 0 17 -8 30 -19 l23 -18 -78 -126 c-42 -70 -82 -129 -87 -133 -6 -3
-20 1 -32 9 -18 12 -26 35 -42 133 l-21 119 -48 -72 c-26 -40 -53 -73 -60 -73
-7 0 -21 9 -31 20 -17 18 -15 23 50 127 66 105 102 153 115 153 4 0 14 -8 22
-17z m-1996 -208 c38 -44 82 -97 98 -118 29 -38 29 -38 10 -57 -18 -18 -24
-19 -119 -5 -147 21 -143 22 -109 -22 16 -21 39 -49 51 -63 29 -32 29 -44 -2
-64 -24 -16 -25 -15 -101 72 -42 48 -88 102 -102 120 l-25 33 20 20 c20 20 22
20 120 5 55 -9 110 -16 122 -16 23 0 28 -8 -39 74 -54 66 -53 62 -28 85 12 12
25 20 29 19 4 -2 38 -39 75 -83z m2297 1 c9 -7 17 -17 17 -22 0 -12 -171 -214
-192 -228 -14 -8 -22 -6 -40 11 l-21 22 39 48 c94 116 156 183 167 183 7 0 20
-7 30 -14z m123 -109 c32 -34 72 -77 89 -95 l29 -32 -27 -27 -27 -27 -35 34
-35 34 -84 -83 c-77 -75 -86 -81 -105 -69 -41 26 -35 40 49 121 64 61 80 81
75 97 -3 11 -10 20 -15 20 -5 0 -14 9 -21 21 -9 17 -7 25 12 45 12 13 25 24
29 24 4 0 33 -28 66 -63z m-2704 -117 c46 -13 105 -77 114 -124 12 -65 -3
-107 -57 -158 -46 -45 -52 -48 -101 -48 -101 0 -172 67 -172 160 0 75 45 138
119 167 38 15 52 15 97 3z m2873 -76 c15 -23 15 -27 2 -37 -108 -84 -205 -162
-204 -163 1 -1 69 7 150 18 154 21 177 18 177 -21 0 -17 -180 -273 -196 -278
-5 -2 -18 10 -27 27 -18 29 -18 31 2 59 26 37 26 55 0 92 -17 25 -27 29 -65
29 -40 0 -46 3 -71 41 -16 23 -32 48 -37 54 -7 9 2 22 27 45 61 53 201 158
213 159 7 1 19 -11 29 -25z m-1504 -184 c64 -93 274 -526 318 -655 23 -66 57
-187 76 -270 33 -141 35 -161 35 -321 0 -194 -10 -241 -82 -393 -47 -98 -105
-164 -197 -225 -68 -44 -191 -106 -211 -106 -26 0 -186 84 -240 125 -81 63
-125 117 -170 211 -69 145 -79 193 -81 381 -1 211 28 364 119 619 57 158 239
525 319 642 45 67 63 65 114 -8z m-1484 -101 c40 -24 73 -49 73 -55 0 -6 -9
-23 -20 -37 -11 -14 -20 -29 -20 -34 0 -5 -11 -31 -24 -59 -41 -85 -62 -137
-86 -213 -13 -40 -30 -76 -37 -78 -14 -5 -254 69 -283 87 -11 7 -12 15 -4 37
12 33 13 33 143 -8 51 -16 97 -27 101 -24 4 2 13 26 20 52 8 27 18 51 24 55 6
4 -39 31 -99 60 -61 29 -111 60 -113 68 -1 9 4 24 12 35 13 18 17 18 115 -28
56 -26 105 -47 109 -47 7 0 62 102 62 114 0 3 -45 31 -100 62 -55 32 -100 65
-100 73 0 8 7 22 16 32 16 17 19 17 78 -15 33 -19 94 -53 133 -77z m3248 -180
c26 -66 45 -122 44 -123 -11 -9 -49 -26 -58 -26 -6 0 -18 18 -27 40 -9 22 -19
40 -23 40 -4 0 -54 -18 -111 -40 -110 -41 -130 -41 -130 5 0 23 3 25 153 86
49 20 58 27 53 44 -18 71 -18 71 6 82 13 7 28 12 34 12 7 1 33 -53 59 -120z
m-3087 -111 c234 -97 452 -222 560 -322 116 -108 139 -167 29 -73 -35 30 -97
74 -137 97 -109 64 -300 151 -312 144 -6 -4 -8 -3 -4 4 4 7 -21 17 -71 28 -43
9 -87 21 -97 26 -16 9 -18 8 -12 -8 10 -23 14 -115 20 -379 5 -193 13 -257 54
-405 16 -59 84 -193 115 -228 10 -10 17 -23 17 -28 0 -6 10 -19 23 -30 12 -11
38 -38 57 -61 75 -86 207 -160 331 -183 71 -14 219 -12 274 2 49 13 49 13 59
-19 12 -37 -29 -54 -156 -65 -227 -21 -407 43 -568 202 -120 120 -205 284
-257 499 -23 96 -26 134 -33 401 -5 173 -13 316 -21 346 -22 94 3 104 129 52z
m2652 17 c11 -13 11 -23 0 -53 -8 -24 -15 -142 -20 -342 -6 -249 -11 -321 -28
-395 -53 -237 -137 -403 -266 -529 -116 -113 -241 -175 -391 -195 -140 -19
-335 9 -335 47 0 5 6 16 13 25 10 14 19 15 57 6 28 -7 90 -8 162 -4 94 5 134
12 198 35 75 28 119 48 130 61 3 3 21 15 40 26 38 24 109 94 159 160 64 84
135 264 157 399 8 50 23 557 17 597 -4 28 -2 37 7 35 7 -2 14 2 16 7 9 22 -61
12 -143 -21 -200 -80 -387 -184 -490 -271 -34 -29 -65 -53 -68 -53 -27 0 68
107 158 178 80 62 156 108 309 184 141 70 253 117 284 117 12 1 27 -6 34 -14z
m505 -102 c4 -19 2 -31 -8 -38 -8 -6 -76 -26 -151 -45 -119 -30 -138 -33 -146
-20 -6 8 -9 24 -8 35 3 16 26 26 133 56 160 46 171 47 180 12z m23 -112 c-2
-19 -19 -37 -68 -69 -36 -23 -66 -46 -68 -51 -2 -5 30 -17 70 -26 40 -10 79
-22 86 -28 16 -13 16 -67 -1 -67 -15 0 -249 56 -294 71 -18 6 -33 16 -33 23 0
11 76 65 220 155 70 44 94 41 88 -8z m-3622 14 c65 -14 129 -28 142 -31 13 -3
22 -12 22 -23 0 -37 -12 -51 -41 -51 l-30 0 22 -30 c18 -23 22 -42 21 -87 -3
-97 -9 -113 -45 -113 -46 0 -279 28 -285 35 -3 2 0 35 6 71 15 93 39 116 112
113 57 -2 120 8 120 21 0 4 -45 17 -100 29 -97 22 -100 23 -100 50 0 49 -2 49
156 16z m3664 -391 l0 -95 -37 3 -38 3 -3 53 c-2 28 -7 52 -13 52 -5 0 -12 1
-16 3 -5 1 -10 -23 -13 -53 l-5 -55 -35 0 -35 0 -3 53 c-3 47 -5 52 -27 52
-22 0 -24 -4 -27 -57 -3 -57 -3 -58 -35 -61 l-33 -3 0 100 0 101 160 0 160 0
0 -96z m-3533 -181 c2 -18 0 -33 -4 -33 -4 0 -71 -7 -148 -15 -77 -8 -145 -15
-151 -15 -14 0 -24 59 -11 67 12 8 234 32 276 30 31 -2 35 -5 38 -34z"/>
<path d="M5363 6845 c0 -9 9 -15 25 -15 29 0 25 24 -5 28 -12 2 -20 -3 -20
-13z"/>
<path d="M5350 6720 c0 -15 7 -20 29 -20 34 0 51 18 30 31 -26 17 -59 10 -59
-11z"/>
<path d="M3735 6201 c-61 -26 -81 -111 -36 -150 58 -51 151 -8 151 69 0 58
-63 102 -115 81z"/>
<path d="M5110 5899 c0 -12 -30 -44 -30 -32 0 10 -47 -65 -56 -89 -4 -10 -10
-18 -14 -18 -4 0 -10 -8 -14 -17 -3 -10 -26 -54 -51 -98 -124 -218 -224 -466
-254 -628 -6 -32 -13 -63 -17 -68 -3 -6 -6 -84 -5 -174 2 -183 10 -217 78
-348 55 -105 142 -187 260 -244 90 -44 138 -55 152 -37 3 5 17 14 31 20 108
50 149 75 204 128 72 68 114 137 151 246 22 65 25 90 25 221 0 158 -9 219 -61
398 -50 175 -117 323 -241 539 -26 46 -48 85 -48 87 0 9 -64 101 -78 113 -19
15 -32 16 -32 1z"/>
<path d="M3436 5244 c-12 -31 -6 -54 13 -54 20 0 34 32 24 56 -7 19 -29 18
-37 -2z"/>
<path d="M3312 5228 c2 -12 10 -23 18 -23 22 0 19 39 -3 43 -15 3 -18 -1 -15
-20z"/>
<path d="M6550 6701 c0 -5 5 -13 10 -16 6 -3 10 -2 10 4 0 5 -4 13 -10 16 -5
3 -10 2 -10 -4z"/>
<path d="M3560 6590 c0 -5 5 -10 10 -10 6 0 10 5 10 10 0 6 -4 10 -10 10 -5 0
-10 -4 -10 -10z"/>
<path d="M3227 6113 c-4 -3 -7 -13 -7 -22 1 -13 3 -13 11 2 11 19 8 33 -4 20z"/>
<path d="M7006 6097 c3 -10 9 -15 12 -12 3 3 0 11 -7 18 -10 9 -11 8 -5 -6z"/>
<path d="M3160 5969 c0 -5 5 -7 10 -4 6 3 10 8 10 11 0 2 -4 4 -10 4 -5 0 -10
-5 -10 -11z"/>
<path d="M7141 4494 c0 -11 3 -14 6 -6 3 7 2 16 -1 19 -3 4 -6 -2 -5 -13z"/>
<path d="M7095 4399 c-4 -6 -5 -12 -2 -15 2 -3 7 2 10 11 7 17 1 20 -8 4z"/>
<path d="M7081 4354 c0 -11 3 -14 6 -6 3 7 2 16 -1 19 -3 4 -6 -2 -5 -13z"/>
<path d="M6775 3820 c-3 -5 -1 -10 4 -10 6 0 11 5 11 10 0 6 -2 10 -4 10 -3 0
-8 -4 -11 -10z"/>
<path d="M6612 3644 c-7 -8 -8 -14 -3 -14 10 0 25 19 20 25 -2 1 -10 -3 -17
-11z"/>
<path d="M6417 3466 c-4 -10 -1 -13 9 -9 15 6 19 23 5 23 -5 0 -11 -7 -14 -14z"/>
</g>
</svg>
