<?xml version="1.0" standalone="no"?>
<!DOCTYPE svg PUBLIC "-//W3C//DTD SVG 20010904//EN"
 "http://www.w3.org/TR/2001/REC-SVG-20010904/DTD/svg10.dtd">
<svg version="1.0" xmlns="http://www.w3.org/2000/svg"
 width="300.000000pt" height="300.000000pt" viewBox="0 0 300.000000 300.000000"
 preserveAspectRatio="xMidYMid meet">
<metadata>
Created by potrace 1.10, written by Peter Selinger 2001-2011
</metadata>
<g transform="translate(0.000000,300.000000) scale(0.100000,-0.100000)"
fill="#000000" stroke="none">
<path d="M1360 2614 c-132 -22 -229 -50 -335 -99 -139 -64 -312 -207 -417
-345 -66 -86 -154 -268 -174 -355 -8 -38 -22 -95 -30 -125 -19 -72 -13 -327
10 -425 21 -93 78 -238 118 -302 18 -29 44 -71 58 -95 46 -77 217 -240 316
-301 101 -61 214 -113 271 -123 21 -3 65 -15 98 -27 49 -16 87 -20 205 -20
154 -1 224 9 359 49 142 43 365 173 404 235 6 10 15 19 19 19 14 0 60 45 107
105 104 132 176 278 218 445 20 78 24 123 25 245 1 88 -4 175 -11 210 -19 88
-51 195 -73 238 -10 20 -15 37 -11 37 5 0 3 4 -2 8 -6 4 -23 32 -39 62 -16 30
-45 75 -65 99 -20 23 -49 61 -64 82 -60 84 -183 184 -315 256 -117 63 -229
100 -366 120 -47 6 -277 12 -306 7z m258 -20 c50 -14 14 -19 -131 -20 -120 0
-170 -4 -237 -21 -100 -25 -231 -79 -299 -122 -26 -17 -51 -31 -54 -31 -54 0
200 129 314 160 42 11 102 24 135 29 70 10 240 13 272 5z m182 -36 c165 -43
363 -162 489 -291 88 -91 49 -80 -46 13 -96 93 -202 165 -315 212 -87 37 -193
68 -228 68 -14 -1 13 -11 60 -24 159 -43 274 -101 394 -196 230 -184 364 -430
398 -730 54 -492 -272 -974 -756 -1114 -365 -106 -745 -15 -1021 246 -148 140
-247 306 -302 507 -24 85 -27 114 -27 256 0 130 4 176 22 245 96 388 387 685
771 788 84 22 117 25 264 26 128 1 167 4 167 14 0 14 9 12 130 -20z m-930
-177 c0 -4 -18 -20 -39 -35 -51 -36 -146 -135 -203 -212 -72 -99 -168 -313
-168 -376 0 -10 -4 -18 -10 -18 -16 0 -12 26 16 108 59 176 158 328 301 461
82 77 103 92 103 72z m1581 -330 c86 -149 134 -315 146 -506 5 -90 4 -105 -9
-105 -12 0 -16 23 -21 123 -9 201 -81 419 -182 551 -20 26 -33 52 -29 58 9 14
42 -29 95 -121z m-2006 -358 c-4 -10 -10 -79 -12 -153 -4 -111 -1 -153 16
-236 23 -111 57 -211 101 -292 15 -28 24 -54 19 -57 -21 -13 -114 220 -140
350 -15 74 -19 330 -6 378 4 15 12 27 18 27 7 0 8 -7 4 -17z m2145 -310 c-1
-99 -72 -307 -147 -435 -61 -102 -182 -243 -196 -229 -7 7 5 27 44 68 89 94
163 212 209 335 29 79 60 206 60 250 0 27 4 38 15 38 10 0 15 -10 15 -27z
m-1952 -511 c50 -72 178 -195 262 -252 71 -48 204 -113 268 -129 42 -12 58
-31 25 -31 -36 1 -201 77 -283 131 -107 70 -201 157 -274 252 -31 40 -56 76
-56 80 0 20 21 1 58 -51z m1592 -181 c0 -17 -158 -120 -255 -167 -185 -89
-382 -125 -569 -104 -127 14 -167 22 -166 35 0 12 -4 12 102 -4 187 -30 431 4
600 82 85 39 247 143 255 162 4 13 33 10 33 -4z"/>
<path d="M1289 2500 c-255 -53 -492 -216 -635 -435 -280 -429 -195 -1008 194
-1331 200 -166 425 -241 692 -231 147 5 237 24 363 77 222 92 435 305 527 527
63 150 74 211 74 403 0 149 -3 187 -22 254 -75 269 -247 493 -482 628 -76 43
-220 96 -309 112 -111 21 -292 20 -402 -4z m405 -34 c64 -7 85 -36 36 -49 -13
-3 -31 3 -48 16 -29 23 -43 26 -80 13 -15 -5 -29 -3 -39 6 -16 13 -56 12 -83
-2 -8 -4 -24 -4 -35 0 -13 4 -24 2 -30 -7 -6 -8 -26 -15 -45 -15 -19 0 -52 -9
-73 -18 -20 -10 -35 -14 -31 -9 7 12 -6 11 -45 -2 -25 -9 -31 -16 -31 -41 0
-49 47 -118 100 -146 21 -11 26 -11 37 4 9 13 22 15 52 11 28 -3 41 -1 45 8 4
11 12 12 38 4 18 -6 60 -12 93 -14 33 -3 93 -10 133 -16 62 -10 75 -10 90 3
23 20 42 12 42 -18 0 -15 6 -24 15 -24 9 0 18 -7 21 -15 4 -8 17 -15 29 -15
13 0 27 -5 30 -10 4 -6 10 -8 15 -5 4 2 22 -13 40 -35 18 -22 41 -40 51 -40
11 0 19 -4 19 -10 0 -5 7 -10 15 -10 8 0 15 -9 15 -20 0 -11 6 -20 13 -20 17
0 44 -33 39 -48 -2 -7 3 -15 12 -18 9 -3 13 -10 10 -15 -3 -5 6 -13 19 -18 14
-6 29 -23 36 -42 14 -40 14 -39 -4 -39 -8 0 -15 -4 -15 -10 0 -5 -9 -10 -21
-10 -11 0 -63 -20 -115 -45 -51 -25 -98 -45 -104 -45 -5 0 -10 -4 -10 -8 0 -5
-17 -18 -37 -30 -51 -30 -89 -65 -97 -90 -8 -25 -36 -51 -36 -33 0 7 -4 9 -10
6 -5 -3 -11 -3 -11 2 -1 4 -3 17 -4 28 -8 61 -152 359 -193 398 -24 23 -33 26
-53 18 -32 -12 -70 -46 -62 -55 4 -4 3 -10 -3 -14 -14 -10 -64 -102 -64 -118
0 -8 -3 -14 -8 -14 -4 0 -13 -15 -20 -32 -7 -18 -18 -41 -23 -50 -5 -10 -9
-25 -9 -33 0 -8 -4 -15 -10 -15 -5 0 -10 -7 -10 -17 0 -9 -8 -40 -17 -69 l-16
-53 -33 42 c-36 46 -117 117 -133 117 -6 0 -11 5 -11 10 0 6 -9 10 -20 10 -11
0 -20 5 -20 10 0 6 -4 10 -9 10 -5 0 -39 14 -74 30 -36 17 -74 30 -84 30 -15
0 -15 2 -3 10 12 8 12 10 -3 16 -21 8 -21 32 -2 59 27 35 59 77 88 110 15 18
27 36 27 39 0 10 40 51 50 51 12 0 70 53 70 65 0 5 9 6 22 1 26 -10 65 8 97
45 19 22 21 28 9 42 -8 10 -19 28 -25 42 -6 14 -25 42 -43 62 -29 32 -35 35
-59 27 -63 -23 -71 -31 -71 -71 0 -27 4 -38 15 -38 20 0 37 -42 21 -52 -6 -4
-21 3 -32 15 -46 48 -62 56 -91 48 -15 -4 -29 -13 -29 -19 -1 -7 -2 -17 -3
-24 0 -6 -4 -8 -8 -5 -3 4 -14 0 -24 -9 -9 -8 -26 -17 -36 -18 -11 -2 -17 -10
-15 -20 3 -19 -11 -34 -56 -58 -22 -12 -34 -13 -38 -6 -4 7 -2 8 4 4 8 -4 12
0 12 12 0 22 99 124 180 187 68 51 233 133 290 142 13 2 29 8 36 13 30 25 287
34 448 16z m214 -73 c39 -19 72 -39 72 -44 0 -20 -24 -20 -39 0 -16 21 -18 21
-49 6 -18 -9 -37 -25 -43 -36 -5 -11 -15 -17 -20 -13 -7 4 -5 12 5 22 14 14
12 20 -19 58 -55 66 -32 68 93 7z m-468 20 c0 -16 -31 -167 -35 -171 -2 -2
-19 20 -37 49 l-33 54 -10 -60 c-6 -33 -14 -59 -18 -58 -10 3 -97 133 -97 144
0 5 8 9 18 9 10 0 28 -18 42 -43 13 -23 25 -35 26 -27 16 106 28 115 68 48
l24 -41 7 39 c4 21 8 45 10 52 5 13 35 17 35 5z m120 -13 c0 -16 -7 -20 -30
-20 -16 0 -30 -4 -30 -10 0 -5 14 -10 30 -10 23 0 30 -4 30 -20 0 -16 -7 -20
-30 -20 -16 0 -30 -4 -30 -10 0 -5 14 -10 30 -10 23 0 30 -4 30 -20 0 -17 -7
-20 -45 -20 l-45 0 0 80 0 80 45 0 c38 0 45 -3 45 -20z m79 14 c38 -8 56 -36
41 -63 -7 -13 -7 -22 0 -26 15 -9 12 -36 -7 -57 -16 -18 -68 -24 -89 -10 -12
8 3 162 16 162 4 0 22 -3 39 -6z m139 -30 c22 -15 30 -58 12 -69 -5 -3 -7 -12
-3 -20 8 -21 -24 -65 -46 -65 -32 0 -51 11 -51 29 0 26 10 31 31 18 21 -13 38
-2 21 15 -17 17 -15 38 4 38 9 0 14 6 11 13 -2 6 -11 11 -21 9 -10 -2 -16 4
-16 16 0 35 22 42 58 16z m145 -50 c12 -4 9 -18 -18 -77 -18 -40 -39 -72 -47
-72 -7 0 -13 5 -13 10 0 10 57 145 61 145 1 0 9 -3 17 -6z m138 -30 c20 -21
20 -24 5 -30 -19 -7 -63 28 -63 50 0 19 31 9 58 -20z m-925 -9 c11 -17 14 -36
10 -55 -5 -29 -4 -30 15 -19 17 9 23 8 30 -2 5 -8 9 -16 9 -20 0 -5 -85 -49
-96 -49 -2 0 -2 29 2 65 6 54 4 65 -8 65 -8 0 -19 -10 -25 -22 l-10 -23 -12
24 c-11 19 -10 26 5 42 24 27 60 24 80 -6z m865 -44 c1 -20 4 -47 8 -61 7 -24
8 -24 31 18 25 44 37 51 46 29 5 -15 -72 -137 -87 -137 -13 0 -18 15 -27 85
l-8 60 -22 -42 c-25 -48 -40 -60 -48 -40 -3 8 14 44 37 81 33 53 44 64 55 55
8 -6 14 -28 15 -48z m-951 -140 c0 -11 -12 -13 -58 -8 -32 4 -67 9 -78 13 -12
5 -6 -7 19 -33 31 -33 36 -42 24 -51 -11 -10 -24 0 -67 49 -64 74 -59 88 26
70 81 -16 82 -15 41 27 -29 30 -34 41 -25 50 10 10 23 0 65 -45 29 -32 52 -64
53 -72z m1082 55 c-80 -101 -85 -106 -98 -95 -10 8 -2 24 38 75 40 49 54 61
65 53 10 -9 10 -15 -5 -33z m82 -43 c39 -42 43 -50 31 -63 -13 -12 -17 -12
-29 5 -14 20 -15 19 -47 -10 -18 -16 -39 -37 -45 -45 -10 -12 -14 -12 -28 -1
-15 13 -12 18 31 56 46 41 47 43 31 62 -14 15 -15 22 -6 31 7 7 13 12 14 12 2
0 23 -21 48 -47z m-1329 -73 c43 -47 1 -133 -65 -133 -67 0 -108 85 -64 134
37 42 91 41 129 -1z m-183 -15 c-2 -19 -8 -35 -14 -35 -5 0 -7 -4 -3 -9 8 -14
-15 -25 -27 -13 -8 8 -3 23 17 52 15 22 28 40 29 40 1 0 0 -16 -2 -35z m1588
2 c0 -7 -25 -29 -56 -51 -30 -21 -53 -40 -51 -42 2 -3 37 0 77 7 46 7 76 7 82
1 7 -7 -40 -89 -89 -151 -2 -3 -9 1 -15 7 -9 9 -9 17 1 36 18 33 -1 70 -34 64
-17 -4 -29 3 -44 22 l-20 28 66 51 c63 48 83 55 83 28z m-753 -99 c14 -24 55
-102 90 -174 149 -306 161 -552 33 -696 -21 -25 -66 -59 -99 -77 l-61 -32 -61
32 c-229 123 -249 410 -54 799 66 132 101 190 115 190 5 0 22 -19 37 -42z
m-749 -41 c37 -21 41 -26 29 -38 -7 -8 -16 -25 -20 -39 -3 -14 -12 -33 -20
-43 -13 -18 -16 -18 -78 8 -75 31 -87 41 -72 56 7 7 26 3 64 -15 29 -14 54
-26 55 -26 1 0 7 13 14 30 7 16 16 27 21 24 5 -3 9 -3 9 -1 0 3 -26 20 -57 37
-32 18 -59 34 -61 35 -1 1 0 10 4 19 6 15 9 15 38 -3 17 -11 50 -30 74 -44z
m-141 33 c-3 -12 1 -24 11 -30 16 -9 16 -9 1 -10 -9 0 -19 -7 -23 -15 -8 -21
-34 -19 -31 3 2 24 17 56 29 64 17 12 19 10 13 -12z m1768 -123 c23 -56 20
-75 -10 -63 -8 3 -15 12 -15 21 0 19 0 19 -64 -9 -30 -13 -57 -22 -60 -18 -16
15 -1 32 49 52 58 23 60 26 45 50 -6 9 -5 17 3 22 20 13 28 4 52 -55z m-1819
18 c-3 -8 0 -20 8 -27 10 -10 10 -15 -3 -30 -21 -24 -31 -23 -31 5 0 34 11 67
22 67 6 0 8 -7 4 -15z m370 -116 c115 -57 208 -127 238 -179 18 -30 21 -53 22
-160 1 -139 20 -214 72 -280 15 -19 26 -43 24 -53 -9 -42 -120 -49 -228 -16
-57 18 -77 30 -129 82 -101 102 -142 214 -150 412 -3 66 -7 151 -10 189 l-4
68 32 -6 c17 -3 77 -29 133 -57z m1229 -1 c-3 -35 -7 -119 -10 -186 -8 -188
-44 -303 -127 -397 -72 -82 -167 -125 -274 -125 -103 0 -132 31 -82 90 48 58
71 147 72 285 1 137 10 161 78 220 53 45 156 106 245 145 100 43 103 42 98
-32z m-1440 42 c3 -5 0 -28 -6 -50 -9 -30 -17 -40 -28 -37 -102 29 -141 44
-141 54 0 22 17 23 73 4 l56 -19 10 29 c10 29 25 37 36 19z m1695 -38 c0 -14
-15 -23 -62 -37 -35 -9 -71 -20 -80 -22 -13 -4 -18 0 -18 14 0 16 14 24 73 40
93 26 87 26 87 5z m-182 -29 c1 -20 8 -41 16 -45 10 -6 12 -17 6 -44 -6 -27
-5 -37 6 -41 9 -3 11 -10 6 -17 -12 -15 -16 -66 -9 -110 4 -19 60 -49 72 -38
10 11 79 8 87 -3 34 -47 -46 -281 -144 -421 -118 -169 -269 -292 -442 -361
-70 -28 -78 -30 -166 -48 -327 -67 -660 32 -890 265 -95 97 -144 166 -193 270
-36 79 -69 193 -61 213 2 7 27 13 57 14 72 4 80 6 111 30 l27 22 -21 29 c-21
28 -25 29 -87 25 -36 -1 -72 -8 -80 -15 -27 -22 -52 36 -29 67 11 15 17 17 28
7 8 -6 37 -12 64 -13 27 -1 54 -5 59 -10 6 -4 25 9 46 32 20 21 31 39 26 39
-5 0 -4 7 3 15 10 13 10 19 -4 34 -17 18 -17 20 2 30 18 9 19 7 19 -32 1 -63
24 -239 34 -259 5 -9 9 -26 9 -37 0 -12 5 -21 10 -21 6 0 10 -9 10 -20 0 -19
17 -58 30 -70 3 -3 17 -21 30 -40 46 -65 102 -108 181 -135 45 -16 187 -23
208 -11 6 4 11 1 11 -6 0 -7 9 -2 19 11 l18 24 49 -26 c50 -26 84 -39 95 -34
3 1 13 -4 22 -12 15 -12 17 -11 17 3 0 10 5 14 10 11 6 -4 35 6 65 20 54 27
55 27 115 12 34 -9 68 -13 77 -10 8 3 19 0 24 -8 6 -10 9 -10 9 -1 0 7 15 12
39 12 22 0 43 5 46 10 3 5 15 10 26 10 53 0 168 109 214 201 38 78 45 99 52
159 3 25 9 47 14 50 7 5 10 39 9 110 -1 107 7 182 20 190 24 15 27 12 28 -27z
m-1604 -26 c50 -9 78 -28 64 -42 -4 -4 -159 24 -166 30 -1 1 0 10 4 19 4 11
13 15 23 11 9 -4 42 -12 75 -18z m1796 4 c0 -12 -16 -28 -42 -44 l-42 -25 35
-7 c59 -12 69 -16 69 -31 0 -8 -6 -14 -14 -14 -25 0 -151 31 -159 39 -5 5 16
22 45 39 29 16 62 37 73 46 27 21 35 20 35 -3z m-1815 -61 c11 18 44 10 59
-13 11 -15 13 -35 9 -60 -5 -31 -9 -36 -27 -32 -11 2 -47 7 -78 10 -56 6 -58
7 -58 36 0 42 32 71 64 59 16 -6 27 -6 31 0z m1835 -130 c0 -43 -3 -50 -20
-50 -16 0 -20 7 -20 30 0 17 -4 30 -10 30 -5 0 -10 -13 -10 -30 0 -23 -4 -30
-20 -30 -16 0 -20 7 -20 30 0 40 -18 38 -22 -2 -2 -22 -9 -34 -20 -36 -15 -3
-18 4 -18 47 l0 50 78 4 c42 1 78 4 80 5 1 1 2 -20 2 -48z m-1766 -86 c3 -9 6
-17 6 -19 0 -2 -30 -6 -67 -10 -38 -4 -76 -9 -85 -11 -13 -4 -18 0 -18 15 0
16 9 21 58 26 31 3 64 8 72 9 8 2 18 4 21 5 4 0 10 -6 13 -15z"/>
<path d="M1610 2306 c0 -10 9 -16 21 -16 24 0 21 23 -4 28 -10 2 -17 -3 -17
-12z"/>
<path d="M790 2030 c-11 -11 -20 -23 -20 -28 0 -16 32 -52 46 -52 16 0 54 35
54 50 0 6 -9 19 -20 30 -11 11 -24 20 -30 20 -5 0 -19 -9 -30 -20z"/>
<path d="M1471 1865 c-11 -19 -16 -35 -11 -35 5 0 11 4 15 10 3 5 11 7 18 5 7
-3 18 -1 26 4 10 7 11 13 2 30 -16 29 -26 27 -50 -14z"/>
<path d="M1408 1748 c-42 -81 -58 -118 -58 -131 0 -10 49 85 86 166 24 52 4
27 -28 -35z"/>
<path d="M1703 1290 c0 -41 2 -58 4 -37 2 20 2 54 0 75 -2 20 -4 3 -4 -38z"/>
<path d="M1530 1035 c-14 -8 -34 -12 -45 -8 -16 4 -17 3 -8 -7 13 -14 49 -8
78 14 25 19 8 20 -25 1z"/>
<path d="M841 1708 c1 -25 14 -43 33 -46 11 -2 15 1 11 7 -3 6 2 11 12 11 17
1 17 1 -1 15 -10 8 -23 12 -27 9 -5 -3 -9 0 -9 5 0 6 -4 11 -10 11 -5 0 -10
-6 -9 -12z"/>
<path d="M922 1675 c3 -3 43 -24 89 -46 46 -22 80 -36 74 -31 -12 12 -150 82
-161 82 -4 0 -5 -2 -2 -5z"/>
<path d="M890 1307 c0 -20 38 -105 51 -113 14 -8 11 4 -7 31 -9 14 -22 42 -30
63 -7 20 -13 29 -14 19z"/>
<path d="M2131 1710 c-8 -4 -10 -13 -7 -19 4 -6 3 -11 -3 -11 -5 0 -11 5 -13
12 -3 9 -6 9 -12 0 -4 -7 -2 -12 4 -12 6 0 8 -5 4 -12 -5 -8 -2 -9 11 -4 17 6
17 -2 13 -146 -3 -84 -9 -162 -13 -173 -6 -18 -5 -18 5 -2 6 10 15 91 20 182
4 90 11 168 14 174 9 13 -7 21 -23 11z"/>
<path d="M1845 1065 c-56 -12 -57 -13 -20 -14 22 0 58 6 80 14 48 17 22 17
-60 0z"/>
<path d="M656 1573 c-12 -12 -6 -43 9 -43 8 0 15 9 15 19 0 21 -13 34 -24 24z"/>
</g>
</svg>
